<svg id="Layer_1" data-name="Layer 1" xmlns="http://www.w3.org/2000/svg" width="114.93" height="77.31" viewBox="0 0 114.93 77.31">
  <defs>
    <style>
      .cls-1 {
        fill: #fff;
        stroke: #231f20;
        stroke-miterlimit: 10;
        stroke-width: 2.31px;
      }
    </style>
  </defs>
  <rect class="cls-1" x="1.15" y="1.15" width="112.62" height="75"/>
  <g>
    <path
       d="m 2.0757502,57.527 v -1.4 q 2.464,-0.168 3.416,-0.84 1.176,-0.896 1.176,-3.192 v -26.6 q 0,-2.464 -0.952,-3.304 -0.896,-0.896 -3.64,-1.064 v -1.4 H 19.54775 q 7.28,0 11.032,2.464 3.472,2.296 3.472,6.384 0,3.864 -3.136,6.216 -2.072,1.512 -4.928,2.128 v 0.336 q 4.368,0.784 7.056,3.304 2.856,2.744 2.856,6.552 0,4.592 -4.368,7.616 -4.088,2.8 -9.856,2.8 z M 15.85175,36.639 h 1.344 q 7.392,0 7.392,-6.552 v -2.128 q 0,-6.328 -5.656,-6.328 -3.08,0 -3.08,2.128 z m 0,15.736 q 0,3.304 3.416,3.304 6.888,0 6.888,-8.344 0,-8.848 -8.344,-8.848 h -1.96 z"/>
    <path
       d="m 81.495125,51.255 q -3.416,7.168 -8.848,7.168 -4.48,0 -8.848,-4.984 -6.944,4.928 -12.04,4.928 -4.984,0 -8.064,-2.744 -3.08,-2.744 -3.08,-7.056 0,-7.84 10.92,-12.824 l -2.016,-3.976 q -0.896,-1.792 -0.896,-3.976 0,-4.312 3.08,-6.664 2.912,-2.296 8.064,-2.296 4.704,0 7.168,2.184 2.072,1.792 2.072,4.368 0,2.352 -1.568,4.312 -1.12,1.4 -2.408,2.016 l -4.424,2.184 q 5.04,7.448 8.4,11.816 1.064,-1.12 2.52,-3.472 1.792,-2.968 1.792,-4.424 0,-2.408 -3.864,-2.408 v -1.4 h 11.816 v 1.4 q -2.296,0.168 -3.528,1.512 -0.112,0.112 -2.52,3.808 -2.24,3.36 -4.928,6.888 1.96,2.408 2.968,3.304 1.904,1.736 3.752,1.736 2.24,0 3.304,-2.184 z m -22.176,-19.096 1.792,-0.784 q 2.296,-1.008 2.296,-3.864 0,-1.792 -1.064,-3.92 -1.512,-2.912 -3.976,-2.912 -3.192,0 -3.192,3.08 0,2.128 1.12,3.808 z m -6.72,5.32 q -2.24,1.4 -2.744,1.96 -1.344,1.4 -1.344,3.528 0,3.304 2.688,7 2.912,4.032 6.16,4.032 1.792,0 5.152,-2.184 -4.312,-5.712 -9.912,-14.336 z"/>
    <path
       d="m 111.17425,31.151 h -1.4 q -0.896,-3.416 -2.968,-6.16 -3.136,-4.144 -7.56,-4.144 -2.968,0 -4.648,1.568 -1.624,1.512 -1.624,3.752 0,2.632 2.072,4.368 1.568,1.288 6.384,3.472 6.384,2.912 8.904,5.712 2.52,2.744 2.52,6.888 0,4.088 -2.744,7.392 -3.696,4.48 -10.92,4.48 -2.968,0 -5.936,-0.952 -2.912,-1.008 -3.472,-1.008 -1.4,0 -1.68,1.904 h -1.624 V 44.535 h 1.624 q 0.952,5.096 3.584,8.232 3.136,3.752 7.84,3.752 2.744,0 4.592,-1.68 1.904,-1.68 1.904,-4.424 0,-2.408 -1.568,-3.92 -1.4,-1.288 -6.048,-3.584 -6.328,-3.136 -8.68,-5.488 -2.912,-2.912 -2.912,-7.28 0,-4.536 2.8,-7.672 3.192,-3.64 9.128,-3.64 2.632,0 5.712,0.952 3.08,0.952 3.248,0.952 0.616,0 1.176,-0.504 0.56,-0.504 0.56,-1.288 h 1.736 z"/>
  </g>
</svg>
