<svg id="Layer_1" data-name="Layer 1" xmlns="http://www.w3.org/2000/svg" width="114.93" height="77.31" viewBox="0 0 114.93 77.31">
  <defs>
    <style>
      .cls-1 {
        fill: #fff;
        stroke: #231f20;
        stroke-miterlimit: 10;
        stroke-width: 2.31px;
      }
    </style>
  </defs>
  <rect class="cls-1" x="1.15" y="1.15" width="112.62" height="75"/>
  <g>
    <path
       d="m 47.324625,31.991001 h -1.456 q -5.208,-11.256 -13.048,-11.256 -10.136,0 -10.136,17.864 0,17.024 11.088,17.024 7,0 12.88,-6.944 l 1.624,1.624 q -3.528,4.032 -6.72,5.88 -3.976,2.352 -8.96,2.352 -8.12,0 -13.72,-4.872 -6.272,-5.376 -6.272,-14.728 0,-9.52 6.384,-15.176 5.656,-4.984 13.272,-4.984 3.304,0 7.112,1.288 3.808,1.288 4.2,1.288 0.896,0 1.456,-0.672 0.224,-0.28 1.008,-1.792 h 1.288 z"/>
    <path
       d="m 65.75825,41.511001 v 6.44 h -13.16 v -6.44 z"/>
    <path
       d="m 83.621375,40.335001 v 11.144 q 0,2.52 0.952,3.472 0.952,0.952 3.752,1.064 v 1.4 h -18.592 v -1.4 q 2.8,-0.112 3.752,-1.064 0.952,-0.952 0.952,-3.472 v -25.872 q 0,-2.52 -0.952,-3.472 -0.952,-0.952 -3.752,-1.064 v -1.4 h 18.592 q 13.999995,0 13.999995,9.912 0,10.752 -14.279995,10.752 z m 0,-16.24 v 14.504 q 5.712,0 7.56,-2.296 1.4,-1.736 1.4,-6.44 0,-4.536 -1.568,-6.496 -1.456,-1.792 -4.48,-1.792 -1.792,0 -2.352,0.448 -0.56,0.448 -0.56,2.072 z"/>
  </g>
</svg>
