<?xml version="1.0" encoding="UTF-8" standalone="no"?>
<svg
   xmlns:dc="http://purl.org/dc/elements/1.1/"
   xmlns:cc="http://creativecommons.org/ns#"
   xmlns:rdf="http://www.w3.org/1999/02/22-rdf-syntax-ns#"
   xmlns:svg="http://www.w3.org/2000/svg"
   xmlns="http://www.w3.org/2000/svg"
   xmlns:sodipodi="http://sodipodi.sourceforge.net/DTD/sodipodi-0.dtd"
   xmlns:inkscape="http://www.inkscape.org/namespaces/inkscape"
   id="Layer_1"
   data-name="Layer 1"
   width="114.93"
   height="77.31"
   viewBox="0 0 114.93 77.31"
   version="1.1"
   sodipodi:docname="C-P.svg"
   inkscape:version="0.92.3 (2405546, 2018-03-11)">
  <metadata
     id="metadata169">
    <rdf:RDF>
      <cc:Work
         rdf:about="">
        <dc:format>image/svg+xml</dc:format>
        <dc:type
           rdf:resource="http://purl.org/dc/dcmitype/StillImage" />
      </cc:Work>
    </rdf:RDF>
  </metadata>
  <sodipodi:namedview
     pagecolor="#ffffff"
     bordercolor="#666666"
     borderopacity="1"
     objecttolerance="10"
     gridtolerance="10"
     guidetolerance="10"
     inkscape:pageopacity="0"
     inkscape:pageshadow="2"
     inkscape:window-width="1533"
     inkscape:window-height="845"
     id="namedview167"
     showgrid="false"
     inkscape:zoom="8.1748804"
     inkscape:cx="57.833956"
     inkscape:cy="39.848112"
     inkscape:window-x="67"
     inkscape:window-y="27"
     inkscape:window-maximized="1"
     inkscape:current-layer="Layer_1"
     inkscape:snap-smooth-nodes="true"
     inkscape:object-nodes="false" />
  <defs
     id="defs154">
    <style
       id="style152">
      .cls-1 {
        fill: #fff;
        stroke: #231f20;
        stroke-miterlimit: 10;
        stroke-width: 2.31px;
      }
    </style>
  </defs>
  <rect
     class="cls-1"
     x="1.15"
     y="1.15"
     width="112.62"
     height="75"
     id="rect156" />
  <g
     aria-label="C-P"
     style="font-style:normal;font-variant:normal;font-weight:normal;font-stretch:normal;font-size:56px;line-height:1.25;font-family:VremyaFWF;-inkscape-font-specification:'VremyaFWF, Normal';font-variant-ligatures:normal;font-variant-caps:normal;font-variant-numeric:normal;font-feature-settings:normal;text-align:start;letter-spacing:0px;word-spacing:0px;writing-mode:lr-tb;text-anchor:start;fill:#000000;fill-opacity:1;stroke:none"
     id="text173">
    <path
       d="m 47.324625,31.991001 h -1.456 q -5.208,-11.256 -13.048,-11.256 -10.136,0 -10.136,17.864 0,17.024 11.088,17.024 7,0 12.88,-6.944 l 1.624,1.624 q -3.528,4.032 -6.72,5.88 -3.976,2.352 -8.96,2.352 -8.12,0 -13.72,-4.872 -6.272,-5.376 -6.272,-14.728 0,-9.52 6.384,-15.176 5.656,-4.984 13.272,-4.984 3.304,0 7.112,1.288 3.808,1.288 4.2,1.288 0.896,0 1.456,-0.672 0.224,-0.28 1.008,-1.792 h 1.288 z"
       id="path3731"
       inkscape:connector-curvature="0" />
    <path
       d="m 65.75825,41.511001 v 6.44 h -13.16 v -6.44 z"
       id="path3733"
       inkscape:connector-curvature="0" />
    <path
       d="m 83.621375,40.335001 v 11.144 q 0,2.52 0.952,3.472 0.952,0.952 3.752,1.064 v 1.4 h -18.592 v -1.4 q 2.8,-0.112 3.752,-1.064 0.952,-0.952 0.952,-3.472 v -25.872 q 0,-2.52 -0.952,-3.472 -0.952,-0.952 -3.752,-1.064 v -1.4 h 18.592 q 13.999995,0 13.999995,9.912 0,10.752 -14.279995,10.752 z m 0,-16.24 v 14.504 q 5.712,0 7.56,-2.296 1.4,-1.736 1.4,-6.44 0,-4.536 -1.568,-6.496 -1.456,-1.792 -4.48,-1.792 -1.792,0 -2.352,0.448 -0.56,0.448 -0.56,2.072 z"
       id="path3735"
       inkscape:connector-curvature="0" />
  </g>
</svg>
